<?xml version="1.0" encoding="UTF-8"?>
<svg id="Calque_1" data-name="Calque 1" xmlns="http://www.w3.org/2000/svg" xmlns:xlink="http://www.w3.org/1999/xlink" viewBox="11.5 0 99 99">
  <defs>
    <style>
      .cls-1 {
        fill: #32186a;
      }

      .cls-2 {
        fill: url(#Dégradé_sans_nom_194);
      }

      .cls-3 {
        fill: #fff;
      }
    </style>
    <radialGradient id="Dégradé_sans_nom_194" data-name="Dégradé sans nom 194" cx="61.5" cy="49.83" fx="13.79" fy="-10.38" r="76.82" gradientUnits="userSpaceOnUse">
      <stop offset="0" stop-color="#0084f5"/>
      <stop offset=".07" stop-color="#0482f5"/>
      <stop offset=".15" stop-color="#117ff7"/>
      <stop offset=".23" stop-color="#267af9"/>
      <stop offset=".31" stop-color="#4474fc"/>
      <stop offset=".35" stop-color="#5670ff"/>
      <stop offset=".53" stop-color="#636dff"/>
      <stop offset=".71" stop-color="#6b58fb"/>
      <stop offset=".75" stop-color="#6556f1"/>
      <stop offset=".82" stop-color="#5750d8"/>
      <stop offset=".91" stop-color="#3f48ae"/>
      <stop offset="1" stop-color="#213d7a"/>
    </radialGradient>
  </defs>
  <rect id="back" class="cls-2" x="11.94" y=".28" width="99.11" height="99.11" rx="23.65" ry="23.65"/>
  <g>
    <rect class="cls-3" x="30.84" y="31.68" width="40.4" height="13.47" rx="6.73" ry="6.73" transform="translate(62.15 101.32) rotate(-136.99)"/>
    <rect class="cls-3" x="40.72" y="54.34" width="40.4" height="13.47" rx="6.73" ry="6.73" transform="translate(121.99 .16) rotate(90)"/>
    <path class="cls-3" d="M85.53,24.64c-2.54-2.72-6.8-2.87-9.52-.33l-14.44,13.47,4.23,3.94c1.74,1.42,2.77,3.58,2.77,5.89v2.06l16.63-15.52c2.72-2.54,2.87-6.8.33-9.52Z"/>
  </g>
  <g>
    <g>
      <path class="cls-1" d="M30.73,146.36c-1.78,0-3.34-.38-4.7-1.13-1.36-.76-2.41-1.82-3.17-3.2-.76-1.38-1.13-3.01-1.13-4.88v-.43c0-1.87.37-3.5,1.12-4.88.74-1.38,1.79-2.45,3.13-3.21,1.34-.76,2.9-1.13,4.68-1.13s3.28.39,4.57,1.17c1.3.78,2.3,1.86,3.02,3.24.72,1.38,1.08,2.98,1.08,4.81v1.55h-13c.05,1.22.5,2.22,1.37,2.99.86.77,1.92,1.15,3.17,1.15s2.21-.28,2.81-.83c.6-.55,1.06-1.16,1.37-1.84l3.71,1.94c-.34.62-.82,1.3-1.46,2.03-.64.73-1.48,1.36-2.54,1.87-1.06.52-2.4.77-4.03.77ZM26.38,134.87h8.35c-.1-1.03-.51-1.86-1.24-2.48-.73-.62-1.69-.94-2.86-.94s-2.2.31-2.92.94-1.16,1.45-1.33,2.48Z"/>
      <path class="cls-1" d="M43.37,145.85v-25.2h4.54v25.2h-4.54Z"/>
      <path class="cls-1" d="M61.08,146.36c-1.78,0-3.34-.38-4.7-1.13-1.36-.76-2.41-1.82-3.17-3.2-.76-1.38-1.13-3.01-1.13-4.88v-.43c0-1.87.37-3.5,1.12-4.88.74-1.38,1.79-2.45,3.13-3.21,1.34-.76,2.9-1.13,4.68-1.13s3.28.39,4.57,1.17c1.3.78,2.3,1.86,3.02,3.24.72,1.38,1.08,2.98,1.08,4.81v1.55h-13c.05,1.22.5,2.22,1.37,2.99.86.77,1.92,1.15,3.17,1.15s2.21-.28,2.81-.83c.6-.55,1.06-1.16,1.37-1.84l3.71,1.94c-.34.62-.82,1.3-1.46,2.03-.64.73-1.48,1.36-2.54,1.87-1.06.52-2.4.77-4.03.77ZM56.72,134.87h8.35c-.1-1.03-.51-1.86-1.24-2.48-.73-.62-1.69-.94-2.86-.94s-2.2.31-2.92.94-1.16,1.45-1.33,2.48Z"/>
      <path class="cls-1" d="M73.72,145.85v-17.86h4.46v1.94h.65c.31-.6.83-1.12,1.55-1.57.72-.44,1.67-.67,2.84-.67,1.27,0,2.29.25,3.06.74.77.49,1.36,1.13,1.76,1.93h.65c.41-.77.98-1.4,1.73-1.91.74-.5,1.8-.76,3.17-.76,1.1,0,2.11.23,3.01.7.9.47,1.62,1.18,2.16,2.12.54.95.81,2.14.81,3.58v11.74h-4.54v-11.41c0-.98-.25-1.72-.76-2.21-.5-.49-1.21-.74-2.12-.74-1.03,0-1.83.33-2.39.99-.56.66-.85,1.6-.85,2.83v10.55h-4.54v-11.41c0-.98-.25-1.72-.76-2.21-.5-.49-1.21-.74-2.12-.74-1.03,0-1.83.33-2.39.99-.56.66-.85,1.6-.85,2.83v10.55h-4.54Z"/>
      <path class="cls-1" d="M110,146.36c-1.27,0-2.41-.22-3.42-.67-1.01-.44-1.81-1.09-2.39-1.94s-.88-1.89-.88-3.12.29-2.25.88-3.08c.59-.83,1.4-1.45,2.45-1.87s2.24-.63,3.58-.63h4.9v-1.01c0-.84-.26-1.53-.79-2.07s-1.37-.81-2.52-.81-1.97.26-2.52.77c-.55.52-.91,1.18-1.08,2l-4.18-1.4c.29-.91.75-1.75,1.39-2.5s1.49-1.37,2.56-1.84c1.07-.47,2.37-.7,3.91-.7,2.35,0,4.21.59,5.58,1.76,1.37,1.18,2.05,2.88,2.05,5.11v6.66c0,.72.34,1.08,1.01,1.08h1.44v3.74h-3.02c-.89,0-1.62-.22-2.2-.65-.58-.43-.86-1.01-.86-1.73v-.04h-.68c-.1.29-.31.67-.65,1.13-.34.47-.86.88-1.58,1.24-.72.36-1.7.54-2.95.54ZM110.8,142.68c1.27,0,2.31-.35,3.11-1.06.8-.71,1.21-1.65,1.21-2.83v-.36h-4.57c-.84,0-1.5.18-1.98.54-.48.36-.72.86-.72,1.51s.25,1.18.76,1.58,1.24.61,2.2.61Z"/>
    </g>
    <path class="cls-1" d="M10.57,145.86v-11.68L0,120.65h5.29l7.33,8.8h.65l7.33-8.8h5.29l-10.57,13.52v11.68h-4.75Z"/>
  </g>
</svg>